<?xml version="1.0" standalone="no"?>
<!DOCTYPE svg PUBLIC "-//W3C//DTD SVG 20010904//EN"
 "http://www.w3.org/TR/2001/REC-SVG-20010904/DTD/svg10.dtd">
<svg version="1.0" xmlns="http://www.w3.org/2000/svg"
 width="835.000000pt" height="349.000000pt" viewBox="0 0 835.000000 349.000000"
 preserveAspectRatio="xMidYMid meet">

<g transform="translate(0.000000,349.000000) scale(0.100000,-0.100000)"
fill="#000000" stroke="none">
<path d="M1916 3128 c-27 -5 -62 -18 -78 -29 -23 -16 -53 -22 -150 -29 -94 -7
-127 -13 -147 -28 -37 -26 -87 -42 -137 -42 -33 0 -51 -7 -76 -29 -18 -15 -49
-33 -69 -40 -20 -6 -49 -25 -64 -41 -16 -17 -34 -30 -40 -30 -7 0 -24 -11 -39
-25 -15 -14 -41 -32 -59 -41 -36 -19 -88 -62 -164 -138 -96 -95 -110 -111
-123 -146 -7 -19 -24 -47 -38 -62 -14 -15 -28 -47 -33 -74 -5 -26 -18 -57 -28
-68 -28 -30 -41 -70 -41 -125 0 -35 -9 -64 -32 -107 l-32 -59 -6 -225 c-6
-220 -7 -226 -33 -274 -25 -45 -27 -58 -27 -161 0 -100 3 -117 25 -159 14 -26
29 -77 35 -113 5 -35 17 -76 27 -90 27 -39 30 -44 53 -93 37 -80 81 -155 96
-163 8 -4 23 -25 33 -45 20 -38 132 -152 150 -152 6 0 27 -14 47 -32 29 -26
48 -33 101 -40 43 -5 81 -17 112 -35 l46 -28 1549 -2 1548 -2 67 -33 66 -33
1165 -3 1165 -4 60 32 c42 23 82 35 133 41 53 6 81 15 106 34 18 14 56 32 83
40 27 8 58 24 68 35 9 10 33 24 51 30 62 21 174 162 174 218 0 11 13 36 29 56
24 30 30 49 36 113 5 60 13 87 33 116 23 34 27 53 33 150 11 167 10 573 -1
838 -10 224 -12 236 -38 289 -25 51 -27 66 -32 217 -4 145 -7 164 -27 191 -25
34 -43 93 -43 142 0 30 -11 47 -68 109 -63 67 -116 106 -200 146 -28 14 -93
15 -502 13 -460 -3 -469 -3 -497 -24 -16 -12 -47 -25 -69 -28 -33 -6 -45 -3
-69 16 l-29 23 -986 6 c-1500 9 -3058 8 -3114 -3z m1457 -157 c30 -18 60 -25
140 -32 56 -4 517 -8 1024 -9 l922 0 37 -32 37 -33 256 0 256 0 58 34 c56 32
62 33 120 26 113 -13 146 -8 188 30 21 18 53 37 71 40 18 4 114 5 213 3 170
-3 182 -4 213 -26 25 -18 54 -26 125 -33 50 -4 98 -9 104 -9 14 0 89 -74 137
-135 27 -34 30 -46 39 -158 8 -114 15 -142 52 -208 11 -19 15 -72 16 -215 3
-287 11 -370 43 -428 25 -47 26 -55 26 -211 0 -162 0 -163 -30 -220 -24 -45
-30 -70 -31 -119 -1 -119 -13 -194 -37 -219 -16 -17 -26 -47 -35 -103 -13 -78
-13 -80 -81 -151 -52 -54 -81 -76 -116 -88 -26 -9 -55 -24 -64 -34 -10 -11
-38 -24 -64 -31 -26 -6 -67 -25 -91 -41 -43 -28 -49 -29 -165 -30 -67 -1 -321
-4 -566 -8 l-445 -7 -55 -27 c-55 -27 -55 -27 -290 -27 l-235 0 -65 31 -64 32
-349 5 -349 5 -47 26 c-46 26 -48 26 -297 29 -216 3 -256 1 -295 -14 -68 -26
-132 -29 -164 -8 -34 22 -208 33 -550 33 -345 0 -468 -10 -525 -40 -43 -23
-55 -24 -264 -27 l-219 -3 -54 27 c-65 31 -81 33 -460 42 l-282 7 -28 27 c-15
14 -47 32 -71 39 -30 9 -55 27 -86 64 -82 95 -120 150 -139 199 -10 27 -29 62
-42 77 -13 16 -26 48 -30 71 -4 24 -19 61 -33 82 l-27 39 0 253 c0 243 1 253
22 282 26 36 43 121 43 221 0 48 6 85 15 101 39 67 55 109 55 147 0 32 7 50
29 76 17 18 36 52 44 75 8 23 27 55 42 70 156 158 189 189 234 212 21 10 43
26 51 35 8 9 30 25 49 35 20 10 44 27 55 39 10 11 35 24 55 27 43 8 69 20 98
46 16 15 44 22 121 28 83 7 111 14 158 40 l57 30 186 1 c102 0 247 4 321 8
120 7 140 11 180 35 l45 26 385 -2 385 -3 38 -24z"/>
</g>
</svg>
