<?xml version="1.0" standalone="no"?>
<!DOCTYPE svg PUBLIC "-//W3C//DTD SVG 20010904//EN"
 "http://www.w3.org/TR/2001/REC-SVG-20010904/DTD/svg10.dtd">
<svg version="1.0" xmlns="http://www.w3.org/2000/svg"
 width="335.000000pt" height="360.000000pt" viewBox="0 0 335.000000 360.000000"
 preserveAspectRatio="xMidYMid meet">

<g transform="translate(0.000000,360.000000) scale(0.100000,-0.100000)"
fill="#000000" stroke="none">
<path d="M882 3171 c-37 -24 -52 -55 -52 -110 0 -23 -12 -60 -30 -94 -23 -43
-31 -74 -36 -139 -5 -63 -13 -94 -33 -128 -24 -43 -26 -54 -31 -220 -5 -161
-7 -179 -29 -220 -23 -42 -25 -57 -29 -235 -2 -104 0 -261 6 -348 8 -132 12
-160 28 -178 17 -19 20 -45 25 -284 6 -257 7 -264 33 -318 20 -43 26 -72 26
-124 1 -92 14 -151 38 -173 11 -10 23 -37 27 -58 3 -22 17 -50 31 -63 13 -12
27 -38 30 -58 4 -23 21 -51 47 -78 41 -43 42 -43 113 -43 58 0 74 4 89 20 10
11 41 27 68 35 27 8 60 26 73 40 13 14 34 25 48 25 14 0 40 13 59 29 18 16 46
33 63 37 16 4 43 18 59 31 49 40 98 72 135 89 33 15 69 43 130 98 14 12 39 28
57 35 17 7 41 23 54 37 12 13 27 24 32 24 5 0 37 24 70 54 34 29 76 61 94 69
41 22 285 263 306 303 9 17 25 42 36 55 11 13 38 46 61 72 22 27 40 52 40 57
0 5 11 21 24 37 13 15 27 39 31 53 4 14 18 37 31 51 14 14 27 43 31 65 3 21
14 56 24 76 11 21 19 46 19 56 0 27 -48 130 -77 167 -13 17 -40 50 -59 73 -18
24 -34 49 -34 55 0 7 -11 25 -25 41 -14 16 -25 33 -25 38 0 5 -17 26 -37 47
-67 67 -208 223 -217 240 -14 24 -97 114 -123 131 -38 27 -93 73 -162 136
-123 115 -166 149 -221 176 -14 7 -41 26 -61 43 -20 16 -51 39 -69 50 -68 41
-97 61 -120 83 -13 12 -31 22 -40 22 -10 0 -35 12 -56 26 -21 15 -52 31 -69
37 -16 5 -43 19 -60 31 -22 15 -53 23 -115 28 -47 3 -110 9 -140 13 -46 5 -61
3 -88 -14z m262 -184 c22 -4 51 -17 65 -31 14 -13 43 -27 63 -31 20 -4 45 -16
55 -27 10 -11 34 -29 53 -39 42 -24 96 -60 130 -88 45 -37 94 -71 132 -89 21
-10 48 -29 60 -41 20 -19 57 -54 198 -184 14 -13 39 -32 55 -42 35 -21 125
-112 125 -125 0 -9 29 -44 95 -114 116 -124 143 -155 173 -200 19 -28 39 -63
44 -78 5 -15 20 -33 32 -42 18 -11 25 -28 31 -78 4 -35 7 -75 7 -90 -2 -43
-39 -113 -106 -194 -14 -18 -26 -36 -26 -41 0 -6 -9 -18 -21 -29 -12 -10 -30
-36 -41 -57 -24 -48 -236 -263 -304 -308 -85 -57 -144 -102 -144 -111 0 -4
-13 -14 -29 -23 -16 -8 -35 -21 -43 -29 -8 -7 -33 -23 -56 -35 -23 -12 -42
-26 -42 -31 0 -5 -18 -19 -40 -30 -22 -11 -40 -25 -40 -30 0 -5 -19 -19 -42
-31 -24 -12 -56 -32 -71 -45 -16 -13 -33 -24 -39 -24 -6 0 -25 -11 -42 -24
-17 -13 -42 -27 -56 -31 -14 -4 -40 -21 -58 -36 -18 -16 -44 -29 -57 -29 -13
0 -40 -14 -58 -30 -19 -17 -39 -30 -43 -30 -13 1 -76 58 -115 103 -27 32 -34
51 -41 105 -5 44 -16 77 -30 97 -22 28 -23 42 -29 265 -6 228 -7 237 -32 291
l-27 56 0 477 0 477 26 50 c21 43 26 69 31 172 5 109 9 128 34 176 20 37 29
69 29 100 0 74 16 113 58 143 37 26 37 26 67 8 17 -9 48 -20 69 -23z"/>
</g>
</svg>
